<svg xmlns="http://www.w3.org/2000/svg" width="1200" height="720" viewBox="0 0 1200 720" role="img" aria-labelledby="title desc">
  <title id="title">htmlshare page overview</title>
  <desc id="desc">A polished shared document page with TLDR, enhanced content, faithful original toggle, and access-code gate preview.</desc>
  <rect width="1200" height="720" fill="#F7F8FA"/>
  <rect x="86" y="58" width="704" height="604" rx="10" fill="#FFFFFF" stroke="#D8DEE8"/>
  <rect x="842" y="134" width="272" height="304" rx="10" fill="#FFFFFF" stroke="#D8DEE8"/>
  <text x="126" y="120" font-family="-apple-system,BlinkMacSystemFont,Segoe UI,sans-serif" font-size="34" font-weight="700" fill="#1A2233">Product Review Notes</text>
  <rect x="126" y="154" width="146" height="34" rx="17" fill="#2456D6"/>
  <text x="152" y="177" font-family="-apple-system,BlinkMacSystemFont,Segoe UI,sans-serif" font-size="14" fill="#FFFFFF">Enhanced</text>
  <rect x="282" y="154" width="118" height="34" rx="17" fill="#F7F8FA" stroke="#D8DEE8"/>
  <text x="314" y="177" font-family="-apple-system,BlinkMacSystemFont,Segoe UI,sans-serif" font-size="14" fill="#5A6472">Original</text>
  <rect x="126" y="224" width="596" height="98" rx="8" fill="#EDF3FF" stroke="#BCD0FF"/>
  <text x="154" y="258" font-family="-apple-system,BlinkMacSystemFont,Segoe UI,sans-serif" font-size="18" font-weight="700" fill="#1A2233">TL;DR</text>
  <circle cx="158" cy="286" r="4" fill="#2456D6"/>
  <text x="174" y="292" font-family="-apple-system,BlinkMacSystemFont,Segoe UI,sans-serif" font-size="15" fill="#1A2233">Q3 focuses on the team dashboard pilot.</text>
  <circle cx="158" cy="310" r="4" fill="#2456D6"/>
  <text x="174" y="316" font-family="-apple-system,BlinkMacSystemFont,Segoe UI,sans-serif" font-size="15" fill="#1A2233">Four action items keep owners and deadlines visible.</text>
  <text x="126" y="376" font-family="-apple-system,BlinkMacSystemFont,Segoe UI,sans-serif" font-size="22" font-weight="700" fill="#1A2233">Action Items</text>
  <g font-family="-apple-system,BlinkMacSystemFont,Segoe UI,sans-serif" font-size="14" fill="#1A2233">
    <rect x="126" y="404" width="182" height="112" rx="8" fill="#FFFFFF" stroke="#D8DEE8"/>
    <text x="146" y="436" font-weight="700">Ada</text>
    <text x="146" y="466">Prepare pilot list</text>
    <text x="146" y="494" fill="#5A6472">Due Jul 12</text>
    <rect x="332" y="404" width="182" height="112" rx="8" fill="#FFFFFF" stroke="#D8DEE8"/>
    <text x="352" y="436" font-weight="700">Zhou</text>
    <text x="352" y="466">Define events</text>
    <text x="352" y="494" fill="#5A6472">Due Jul 10</text>
    <rect x="538" y="404" width="182" height="112" rx="8" fill="#FFFFFF" stroke="#D8DEE8"/>
    <text x="558" y="436" font-weight="700">Li</text>
    <text x="558" y="466">Interview script</text>
    <text x="558" y="494" fill="#5A6472">Due Jul 09</text>
  </g>
  <text x="126" y="574" font-family="-apple-system,BlinkMacSystemFont,Segoe UI,sans-serif" font-size="16" fill="#5A6472">Faithful original view stays one click away.</text>
  <text x="882" y="190" font-family="-apple-system,BlinkMacSystemFont,Segoe UI,sans-serif" font-size="24" font-weight="700" fill="#1A2233">Access code</text>
  <text x="882" y="226" font-family="-apple-system,BlinkMacSystemFont,Segoe UI,sans-serif" font-size="15" fill="#5A6472">Lightweight sharing protection.</text>
  <rect x="882" y="262" width="192" height="48" rx="8" fill="#F7F8FA" stroke="#D8DEE8"/>
  <text x="904" y="292" font-family="ui-monospace,SFMono-Regular,Menlo,monospace" font-size="18" fill="#1A2233">4821</text>
  <rect x="882" y="326" width="192" height="44" rx="8" fill="#2456D6"/>
  <text x="932" y="354" font-family="-apple-system,BlinkMacSystemFont,Segoe UI,sans-serif" font-size="15" fill="#FFFFFF">Open page</text>
</svg>
